<?xml version="1.0" standalone="no"?>
<!DOCTYPE svg PUBLIC "-//W3C//DTD SVG 20010904//EN"
 "http://www.w3.org/TR/2001/REC-SVG-20010904/DTD/svg10.dtd">
<svg version="1.0" xmlns="http://www.w3.org/2000/svg"
 width="11.000000pt" height="10.000000pt" viewBox="0 0 11.000000 10.000000"
 preserveAspectRatio="xMidYMid meet">

<g transform="translate(0.000000,10.000000) scale(0.100000,-0.100000)"
fill="#000000" stroke="none">
<path d="M24 68 c-16 -18 -22 -27 -14 -21 26 19 35 15 41 -19 l6 -33 2 32 c1
31 11 36 41 19 8 -5 2 5 -14 22 -17 18 -30 32 -31 32 -1 0 -14 -14 -31 -32z
m44 9 c9 -10 6 -13 -13 -13 -19 0 -22 3 -13 13 6 7 12 13 13 13 1 0 7 -6 13
-13z"/>
</g>
</svg>
